<svg xmlns="http://www.w3.org/2000/svg" width="400" height="400" fill="none">
  <path fill="#fff" d="m198.6 98-11.3 46.4-29.5 2.4a1 1 0 0 0-.6 1.8l22.6 20-7 29.9a1 1 0 0 0 1.6 1l25.2-16 25.2 16a1 1 0 0 0 1.1 0 1 1 0 0 0 .4-1l-7-30 22.6-20a1 1 0 0 0-.5-1.7l-29.6-2.4L200.6 98a1 1 0 0 0-1.6-.6 1 1 0 0 0-.4.6Z"/>
  <path fill="#fff" d="m336 270.7.6-12.2c.1-14.5-1.4-28.9-4.3-43 37.3-28.3 45.2-42.2 47.8-52a28.2 28.2 0 0 0-2.8-22c-7.2-12-21.2-16.4-41.5-12.6-7 1.3-13.8 3-20.6 5.2l-.3-10.7c1.1-49.4-49.6-88-90.5-98.8-8.8-2.4-17.8-3.6-27-3.6-63.7 0-104.7 62.3-113 100.4l-2.6 12c-6-1.8-12.2-3.3-18.4-4.5-20.3-3.8-34.3.5-41.6 12.7a28.2 28.2 0 0 0-2.7 22c2.6 9.9 10.6 24 49.3 53-2 19.1-4.4 37.9-4.8 53.8-34.5 26.6-42 39.9-44.5 49.4a28.2 28.2 0 0 0 2.7 22c5.6 9.3 15.1 14 28.4 14 4.4 0 8.8-.5 13.2-1.3 9.8-1.8 22.2-5.5 37-11 4.1 3.6 8.6 6.8 13.3 9.7a184.7 184.7 0 0 0 93.5 25.8c42.1 0 77-15.2 89.9-34.7l.7-1.1a237 237 0 0 0 38 11.3c4.3.8 8.7 1.2 13.1 1.3 13.3 0 22.9-4.7 28.4-14a28.2 28.2 0 0 0 2.8-22c-2.5-9.5-10-22.7-44.2-49.1ZM98 124.4c3.3-15 13.5-38 32.3-57.9C143.9 52.2 166.6 35 197.5 35c7.9 0 15.7 1 23.4 3.1 19.3 5.1 39.8 16.9 54.8 31.4 11.8 11.6 25.8 30.2 25.3 53.6-.4 16.5 2.9 36.6 6.8 53.2a908.5 908.5 0 0 1-106 68l-2.2 1.2-2.3-1.3a884.2 884.2 0 0 1-109-70.4c3-17.2 6.5-34 9.8-49.4ZM258 356a138 138 0 0 1-50.8 9 170.5 170.5 0 0 1-91.7-27.3c24.8-10.1 53.9-23.9 84-39.9 30.6 16.2 59.8 30 84.9 40.2a61.6 61.6 0 0 1-26.5 18Zm107.3-21.4c-2.9 4.8-8 7.2-16.2 7.2-11 0-27.2-4.4-50.6-13.3a893.6 893.6 0 0 1-99-46.5 893.7 893.7 0 0 1-98.9 46.5c-23.3 9-39.6 13.3-50.6 13.3-8.1 0-13.3-2.4-16.2-7.2a14 14 0 0 1-1.2-11.2c2.4-9.2 14.7-21.9 31.8-35.8a72.8 72.8 0 0 0 .9 5.5l.1.5.3 1.2.2.6.4 1.2.1.5.5 1.3.2.5.5 1.4.2.4.6 1.5.2.4.7 1.5.1.4.9 1.6a136.9 136.9 0 0 0-16.4 16.2 1 1 0 0 0 .6 1h.6a218 218 0 0 0 46.3-14.4 886 886 0 0 0 79.3-37.3c-52.1-29.2-141-85-148.1-111.7a14 14 0 0 1 1.2-11.1c5.4-9.1 19-9.7 45.2-1.6l-3.4 17.9a132.8 132.8 0 0 0-21.1-5 1 1 0 0 0-.3 1.5C59 167.3 69 177.3 90.4 193a971.1 971.1 0 0 0 109.2 68.4l9-5A971 971 0 0 0 308.9 193a216.3 216.3 0 0 0 36.4-32 1 1 0 0 0-1.1-1.1 145 145 0 0 0-24.2 6.3l-.1-.5-.8-3.9a280.5 280.5 0 0 1-2.3-13.6c28.5-9.3 43-9 48.6.5a14 14 0 0 1 1.3 11.1c-7.2 26.7-96 82.5-148.2 111.7 28.6 15 56 28 79.3 37.3a218 218 0 0 0 47 14.4 1 1 0 0 0 .3-1.6c-3.2-3.8-8.8-9.5-18.4-17.5 1.8-3.6 3.4-7.3 4.7-11.1v-.2l.7-2 .2-.8.4-1.3.3-1c0-.5.2-1 .3-1.4 18 14.3 30.8 27.5 33.4 37a14 14 0 0 1-1.3 11.2ZM81.2 228.2l.2-2.1c20 14.2 44 29.6 70 44.8a699.4 699.4 0 0 1-68.1 30 44 44 0 0 1-4.6-12c-2.6-14.4-.1-36.9 2.5-60.7Zm241.4 30a87 87 0 0 1-9.3 41.2l-.2.4a721.2 721.2 0 0 1-65.3-29 981.3 981.3 0 0 0 72-46.2c2 11.1 2.9 22.4 2.8 33.7Z"/>
  <path fill="#fff" d="M157.3 78c1.5-2 6.2-11.3 4-12.5-2.2-1.3-16.6 5.3-18 7.2-1.6 1.9-1.8 8.7.5 10 2.2 1.3 12-2.9 13.5-4.8ZM152.6 101.7c1.5-2 2.8-9.1.5-10.4-2.2-1.2-10 4.6-11.4 6.5-1.6 1.9-3.5 7.3-1.2 8.6 2.2 1.3 10.6-2.8 12-4.7ZM168.4 91.3c.9-1 3-4 1.8-4.8-3.5-2.3-7.1 1.5-8 2.6-.8 1-2 4.2-.6 4.9 1.2.7 6-1.6 6.8-2.7ZM178.5 70.2c1.1-1 3.8-5.3 2.7-5.1-2.5.5-4.8 1.4-6.9 2.8-1.1.9-3.2 3.4-2.5 4.2 1.5 1.6 5.6-1 6.7-2ZM284.4 139.9c-.6 1.2-2.5 7.9-1 7.5a20 20 0 0 0 7.6-6.5c.6-1.2.7-6.8-.7-7.3-1.4-.4-5.3 5-5.9 6.3ZM133.5 92c.7-.4 1.9-2.9 1.2-3-2-.7-3.5.7-4.1 1.2-.6.5-1.7 2-1.2 2.6 1.2 1.2 3.5-.2 4.1-.7ZM120.5 106.8c-.3.7-.1 2.7.5 2.6 2.3-.2 2.1-1.7 2.4-2.4.3-.7 1.1-2.1.4-2.4-1.7-.6-3 1.5-3.3 2.2ZM287.2 127.5c-.4.7-.2 2 .4 2a3.7 3.7 0 0 0 3.2-2.6c.3-.7.6-2.4-.2-2.7-1.6-.7-3 2.6-3.4 3.3ZM98.9 274.4c-1.4-1.4-8.7-6.2-10.3-5-1.6 1.2-1.7 10.6-.3 11.9 1.4 1.3 9.5 7.6 11.1 6.4 1.7-1.2.8-12-.5-13.3ZM149.5 335.5c-2.1-1.3-10.4-2.3-12-.3-1.7 2 4.4 8.4 6.5 9.7 2.2 1.3 10 .9 11.7-1 1.6-2-4-7.2-6.2-8.4ZM115.6 267.3c-1-1-3.9-3.4-5-2.6-3.6 2.3-.3 6.2.7 7.2s4.3 2.6 5.4 1.7c1.2-.8-.1-5.3-1.1-6.3ZM94 254c-.6-1.2-5-4.5-5-3.5-.1 2.1.3 4.3 1.3 6.3.7 1.1 3 3.4 4 3 2.4-.8.5-4.7-.2-5.9Z"/>
  <path fill="#fff" fill-rule="evenodd" d="M98 124.4c3.3-15 13.5-38 32.3-57.9C143.9 52.2 166.6 35 197.5 35c7.9 0 15.7 1 23.4 3.1 19.3 5.1 39.8 16.9 54.8 31.4 11.8 11.6 25.8 30.2 25.3 53.6-.4 16.5 2.9 36.6 6.8 53.2a908.5 908.5 0 0 1-106 68l-2.2 1.2-2.3-1.3a884.2 884.2 0 0 1-109-70.4c3-17.2 6.5-34 9.8-49.4Zm89.3 20L198.6 98a1 1 0 0 1 1.6-.6l.4.6 11.2 46.4 29.6 2.4a1 1 0 0 1 .5 1.8l-22.5 20 6.9 29.9a1 1 0 0 1-.4 1 1 1 0 0 1-1.1 0l-25.2-16-25.2 16a1 1 0 0 1-1.1 0 1 1 0 0 1-.4-1l6.9-30-22.6-20a1 1 0 0 1 .6-1.7l29.5-2.4Zm-26-79c2.2 1.3-2.5 10.6-4 12.5-1.6 2-11.3 6-13.5 4.8-2.3-1.3-2.1-8.1-.6-10 1.5-2 15.9-8.5 18.1-7.2Zm-8.2 26c2.3 1.2 1 8.4-.5 10.3-1.5 2-9.9 6-12.1 4.7-2.3-1.3-.4-6.7 1.2-8.6 1.5-2 9.2-7.7 11.4-6.5Zm17.1-5c1.3.8-.9 3.8-1.8 5-.8 1-5.6 3.3-6.8 2.6-1.3-.7-.2-3.8.6-5 .9-1 4.5-4.8 8-2.5Zm11-21.3c1-.2-1.6 4.2-2.7 5-1.1 1-5.2 3.6-6.7 2-.7-.8 1.4-3.3 2.5-4.2 2-1.4 4.4-2.3 6.9-2.8Zm102.2 82.3c-1.5.4.4-6.3 1-7.5.6-1.2 4.5-6.7 5.9-6.3 1.4.5 1.3 6.1.7 7.3a20 20 0 0 1-7.6 6.5ZM134.7 88.9c.7.2-.5 2.7-1.2 3.2-.6.5-3 2-4 .7-.6-.5.5-2 1.1-2.6.6-.5 2-1.9 4.1-1.3ZM121 109.4c-.6.1-.8-2-.5-2.6.3-.7 1.6-2.8 3.3-2.2.7.3 0 1.7-.4 2.4-.3.7-.1 2.2-2.4 2.4Zm166.6 20.1c-.6 0-.8-1.3-.4-2 .3-.7 1.8-4 3.4-3.3.8.3.5 2 .2 2.7a3.7 3.7 0 0 1-3.2 2.6Z" clip-rule="evenodd"/>
  <path fill="#fff" d="M365.3 334.6c-2.9 4.8-8 7.2-16.2 7.2-11 0-27.2-4.4-50.6-13.3a893.6 893.6 0 0 1-99-46.5 893.7 893.7 0 0 1-98.9 46.5c-23.3 9-39.6 13.3-50.6 13.3-8.1 0-13.3-2.4-16.2-7.2a14 14 0 0 1-1.2-11.2c2.4-9.2 14.7-21.9 31.8-35.8a72.8 72.8 0 0 0 .9 5.5l.1.5.3 1.2.2.6.4 1.2.1.5.5 1.3.2.5.5 1.4.2.4.6 1.5.2.4.7 1.5.1.4.9 1.6a136.9 136.9 0 0 0-16.4 16.2 1 1 0 0 0 .6 1h.6a218 218 0 0 0 46.3-14.4 886 886 0 0 0 79.3-37.3c-52.1-29.2-141-85-148.1-111.7a14 14 0 0 1 1.2-11.1c5.4-9.1 19-9.7 45.2-1.6l-3.4 17.9a132.8 132.8 0 0 0-21.1-5 1 1 0 0 0-.3 1.5C59 167.3 69 177.3 90.4 193a971.1 971.1 0 0 0 109.2 68.4l9-5A971 971 0 0 0 308.9 193a216.3 216.3 0 0 0 36.4-32 1 1 0 0 0-1.1-1.1 145 145 0 0 0-24.2 6.3l-.1-.5-.8-3.9a280.5 280.5 0 0 1-2.3-13.6c28.5-9.3 43-9 48.6.5a14 14 0 0 1 1.3 11.1c-7.2 26.7-96 82.5-148.2 111.7 28.6 15 56 28 79.3 37.3a218 218 0 0 0 47 14.4 1 1 0 0 0 .3-1.6c-3.2-3.8-8.8-9.5-18.4-17.5 1.8-3.6 3.4-7.3 4.7-11.1v-.2l.7-2 .2-.8.4-1.3.3-1c0-.5.2-1 .3-1.4 18 14.3 30.8 27.5 33.4 37a14 14 0 0 1-1.3 11.2Z"/>
  <path fill="#fff" fill-rule="evenodd" d="m81.2 228.2.2-2.1c20 14.2 44 29.6 70 44.8a699.4 699.4 0 0 1-68.1 30 44 44 0 0 1-4.6-12c-2.6-14.4-.1-36.9 2.5-60.7Zm7.4 41.2c1.6-1.2 8.9 3.6 10.3 5 1.3 1.3 2.2 12 .5 13.3-1.6 1.2-9.7-5-11-6.4-1.5-1.3-1.4-10.7.2-11.9Zm22-4.7c1.1-.8 4 1.7 5 2.6 1 1 2.3 5.5 1.1 6.3-1.1.9-4.4-.8-5.4-1.7-1-1-4.3-5-.8-7.2ZM89 250.5c0-1 4.4 2.3 5 3.4.8 1.2 2.7 5.1.4 6-1 .3-3.4-2-4.1-3.1-1-2-1.4-4.2-1.3-6.3ZM258 356a138 138 0 0 1-50.8 9 170.5 170.5 0 0 1-91.7-27.3c24.8-10.1 53.9-23.9 84-39.9 30.6 16.2 59.8 30 84.9 40.2a61.6 61.6 0 0 1-26.5 18Zm-120.6-20.8c1.7-2 10-1 12.1.3 2.1 1.2 7.8 6.4 6.2 8.3-1.7 2-9.5 2.4-11.7 1.1-2-1.3-8.2-7.8-6.6-9.7Z" clip-rule="evenodd"/>
  <path fill="#fff" d="M322.6 258.3a87 87 0 0 1-9.3 41.1l-.2.4a721.2 721.2 0 0 1-65.3-29 981.3 981.3 0 0 0 72-46.2c2 11.1 2.9 22.4 2.8 33.7Z"/>
  <mask id="a" width="376" height="370" x="12" y="15" fill="#000" maskUnits="userSpaceOnUse">
    <path fill="#fff" d="M12 15h376v370H12z"/>
    <path d="m198.6 98-11.3 46.4-29.5 2.4a1 1 0 0 0-.6 1.8l22.6 20-7 29.9a1 1 0 0 0 1.6 1l25.2-16 25.2 16a1 1 0 0 0 1.1 0 1 1 0 0 0 .4-1l-7-30 22.6-20a1 1 0 0 0-.5-1.7l-29.6-2.4L200.6 98a1 1 0 0 0-1.6-.6 1 1 0 0 0-.4.6Z"/>
    <path d="m336 270.7.6-12.2c.1-14.5-1.4-28.9-4.3-43 37.3-28.3 45.2-42.2 47.8-52a28.2 28.2 0 0 0-2.8-22c-7.2-12-21.2-16.4-41.5-12.6-7 1.3-13.8 3-20.6 5.2l-.3-10.7c1.1-49.4-49.6-88-90.5-98.8-8.8-2.4-17.8-3.6-27-3.6-63.7 0-104.7 62.3-113 100.4l-2.6 12c-6-1.8-12.2-3.3-18.4-4.5-20.3-3.8-34.3.5-41.6 12.7a28.2 28.2 0 0 0-2.7 22c2.6 9.9 10.6 24 49.3 53-2 19.1-4.4 37.9-4.8 53.8-34.5 26.6-42 39.9-44.5 49.4a28.2 28.2 0 0 0 2.7 22c5.6 9.3 15.1 14 28.4 14 4.4 0 8.8-.5 13.2-1.3 9.8-1.8 22.2-5.5 37-11 4.1 3.6 8.6 6.8 13.3 9.7a184.7 184.7 0 0 0 93.5 25.8c42.1 0 77-15.2 89.9-34.7l.7-1.1a237 237 0 0 0 38 11.3c4.3.8 8.7 1.2 13.1 1.3 13.3 0 22.9-4.7 28.4-14a28.2 28.2 0 0 0 2.8-22c-2.5-9.5-10-22.7-44.2-49.1ZM98 124.4c3.3-15 13.5-38 32.3-57.9C143.9 52.2 166.6 35 197.5 35c7.9 0 15.7 1 23.4 3.1 19.3 5.1 39.8 16.9 54.8 31.4 11.8 11.6 25.8 30.2 25.3 53.6-.4 16.5 2.9 36.6 6.8 53.2a908.5 908.5 0 0 1-106 68l-2.2 1.2-2.3-1.3a884.2 884.2 0 0 1-109-70.4c3-17.2 6.5-34 9.8-49.4ZM258 356a138 138 0 0 1-50.8 9 170.5 170.5 0 0 1-91.7-27.3c24.8-10.1 53.9-23.9 84-39.9 30.6 16.2 59.8 30 84.9 40.2a61.6 61.6 0 0 1-26.5 18Zm107.3-21.4c-2.9 4.8-8 7.2-16.2 7.2-11 0-27.2-4.4-50.6-13.3a893.6 893.6 0 0 1-99-46.5 893.7 893.7 0 0 1-98.9 46.5c-23.3 9-39.6 13.3-50.6 13.3-8.1 0-13.3-2.4-16.2-7.2a14 14 0 0 1-1.2-11.2c2.4-9.2 14.7-21.9 31.8-35.8a72.8 72.8 0 0 0 .9 5.5l.1.5.3 1.2.2.6.4 1.2.1.5.5 1.3.2.5.5 1.4.2.4.6 1.5.2.4.7 1.5.1.4.9 1.6a136.9 136.9 0 0 0-16.4 16.2 1 1 0 0 0 .6 1h.6a218 218 0 0 0 46.3-14.4 886 886 0 0 0 79.3-37.3c-52.1-29.2-141-85-148.1-111.7a14 14 0 0 1 1.2-11.1c5.4-9.1 19-9.7 45.2-1.6l-3.4 17.9a132.8 132.8 0 0 0-21.1-5 1 1 0 0 0-.3 1.5C59 167.3 69 177.3 90.4 193a971.1 971.1 0 0 0 109.2 68.4l9-5A971 971 0 0 0 308.9 193a216.3 216.3 0 0 0 36.4-32 1 1 0 0 0-1.1-1.1 145 145 0 0 0-24.2 6.3l-.1-.5-.8-3.9a280.5 280.5 0 0 1-2.3-13.6c28.5-9.3 43-9 48.6.5a14 14 0 0 1 1.3 11.1c-7.2 26.7-96 82.5-148.2 111.7 28.6 15 56 28 79.3 37.3a218 218 0 0 0 47 14.4 1 1 0 0 0 .3-1.6c-3.2-3.8-8.8-9.5-18.4-17.5 1.8-3.6 3.4-7.3 4.7-11.1v-.2l.7-2 .2-.8.4-1.3.3-1c0-.5.2-1 .3-1.4 18 14.3 30.8 27.5 33.4 37a14 14 0 0 1-1.3 11.2ZM81.2 228.2l.2-2.1c20 14.2 44 29.6 70 44.8a699.4 699.4 0 0 1-68.1 30 44 44 0 0 1-4.6-12c-2.6-14.4-.1-36.9 2.5-60.7Zm241.4 30a87 87 0 0 1-9.3 41.2l-.2.4a721.2 721.2 0 0 1-65.3-29 981.3 981.3 0 0 0 72-46.2c2 11.1 2.9 22.4 2.8 33.7Z"/>
    <path d="M157.3 78c1.5-2 6.2-11.3 4-12.5-2.2-1.3-16.6 5.3-18 7.2-1.6 1.9-1.8 8.7.5 10 2.2 1.3 12-2.9 13.5-4.8ZM152.6 101.7c1.5-2 2.8-9.1.5-10.4-2.2-1.2-10 4.6-11.4 6.5-1.6 1.9-3.5 7.3-1.2 8.6 2.2 1.3 10.6-2.8 12-4.7ZM168.4 91.3c.9-1 3-4 1.8-4.8-3.5-2.3-7.1 1.5-8 2.6-.8 1-2 4.2-.6 4.9 1.2.7 6-1.6 6.8-2.7ZM178.5 70.2c1.1-1 3.8-5.3 2.7-5.1-2.5.5-4.8 1.4-6.9 2.8-1.1.9-3.2 3.4-2.5 4.2 1.5 1.6 5.6-1 6.7-2ZM284.4 139.9c-.6 1.2-2.5 7.9-1 7.5a20 20 0 0 0 7.6-6.5c.6-1.2.7-6.8-.7-7.3-1.4-.4-5.3 5-5.9 6.3ZM133.5 92c.7-.4 1.9-2.9 1.2-3-2-.7-3.5.7-4.1 1.2-.6.5-1.7 2-1.2 2.6 1.2 1.2 3.5-.2 4.1-.7ZM120.5 106.8c-.3.7-.1 2.7.5 2.6 2.3-.2 2.1-1.7 2.4-2.4.3-.7 1.1-2.1.4-2.4-1.7-.6-3 1.5-3.3 2.2ZM287.2 127.5c-.4.7-.2 2 .4 2a3.7 3.7 0 0 0 3.2-2.6c.3-.7.6-2.4-.2-2.7-1.6-.7-3 2.6-3.4 3.3ZM98.9 274.4c-1.4-1.4-8.7-6.2-10.3-5-1.6 1.2-1.7 10.6-.3 11.9 1.4 1.3 9.5 7.6 11.1 6.4 1.7-1.2.8-12-.5-13.3ZM149.5 335.5c-2.1-1.3-10.4-2.3-12-.3-1.7 2 4.4 8.4 6.5 9.7 2.2 1.3 10 .9 11.7-1 1.6-2-4-7.2-6.2-8.4ZM115.6 267.3c-1-1-3.9-3.4-5-2.6-3.6 2.3-.3 6.2.7 7.2s4.3 2.6 5.4 1.7c1.2-.8-.1-5.3-1.1-6.3ZM94 254c-.6-1.2-5-4.5-5-3.5-.1 2.1.3 4.3 1.3 6.3.7 1.1 3 3.4 4 3 2.4-.8.5-4.7-.2-5.9Z"/>
  </mask>
  <path fill="#000" d="m198.6 98-11.3 46.4-29.5 2.4a1 1 0 0 0-.6 1.8l22.6 20-7 29.9a1 1 0 0 0 1.6 1l25.2-16 25.2 16a1 1 0 0 0 1.1 0 1 1 0 0 0 .4-1l-7-30 22.6-20a1 1 0 0 0-.5-1.7l-29.6-2.4L200.6 98a1 1 0 0 0-1.6-.6 1 1 0 0 0-.4.6Z"/>
  <path fill="#000" d="m336 270.7.6-12.2c.1-14.5-1.4-28.9-4.3-43 37.3-28.3 45.2-42.2 47.8-52a28.2 28.2 0 0 0-2.8-22c-7.2-12-21.2-16.4-41.5-12.6-7 1.3-13.8 3-20.6 5.2l-.3-10.7c1.1-49.4-49.6-88-90.5-98.8-8.8-2.4-17.8-3.6-27-3.6-63.7 0-104.7 62.3-113 100.4l-2.6 12c-6-1.8-12.2-3.3-18.4-4.5-20.3-3.8-34.3.5-41.6 12.7a28.2 28.2 0 0 0-2.7 22c2.6 9.9 10.6 24 49.3 53-2 19.1-4.4 37.9-4.8 53.8-34.5 26.6-42 39.9-44.5 49.4a28.2 28.2 0 0 0 2.7 22c5.6 9.3 15.1 14 28.4 14 4.4 0 8.8-.5 13.2-1.3 9.8-1.8 22.2-5.5 37-11 4.1 3.6 8.6 6.8 13.3 9.7a184.7 184.7 0 0 0 93.5 25.8c42.1 0 77-15.2 89.9-34.7l.7-1.1a237 237 0 0 0 38 11.3c4.3.8 8.7 1.2 13.1 1.3 13.3 0 22.9-4.7 28.4-14a28.2 28.2 0 0 0 2.8-22c-2.5-9.5-10-22.7-44.2-49.1ZM98 124.4c3.3-15 13.5-38 32.3-57.9C143.9 52.2 166.6 35 197.5 35c7.9 0 15.7 1 23.4 3.1 19.3 5.1 39.8 16.9 54.8 31.4 11.8 11.6 25.8 30.2 25.3 53.6-.4 16.5 2.9 36.6 6.8 53.2a908.5 908.5 0 0 1-106 68l-2.2 1.2-2.3-1.3a884.2 884.2 0 0 1-109-70.4c3-17.2 6.5-34 9.8-49.4ZM258 356a138 138 0 0 1-50.8 9 170.5 170.5 0 0 1-91.7-27.3c24.8-10.1 53.9-23.9 84-39.9 30.6 16.2 59.8 30 84.9 40.2a61.6 61.6 0 0 1-26.5 18Zm107.3-21.4c-2.9 4.8-8 7.2-16.2 7.2-11 0-27.2-4.4-50.6-13.3a893.6 893.6 0 0 1-99-46.5 893.7 893.7 0 0 1-98.9 46.5c-23.3 9-39.6 13.3-50.6 13.3-8.1 0-13.3-2.4-16.2-7.2a14 14 0 0 1-1.2-11.2c2.4-9.2 14.7-21.9 31.8-35.8a72.8 72.8 0 0 0 .9 5.5l.1.5.3 1.2.2.6.4 1.2.1.5.5 1.3.2.5.5 1.4.2.4.6 1.5.2.4.7 1.5.1.4.9 1.6a136.9 136.9 0 0 0-16.4 16.2 1 1 0 0 0 .6 1h.6a218 218 0 0 0 46.3-14.4 886 886 0 0 0 79.3-37.3c-52.1-29.2-141-85-148.1-111.7a14 14 0 0 1 1.2-11.1c5.4-9.1 19-9.7 45.2-1.6l-3.4 17.9a132.8 132.8 0 0 0-21.1-5 1 1 0 0 0-.3 1.5C59 167.3 69 177.3 90.4 193a971.1 971.1 0 0 0 109.2 68.4l9-5A971 971 0 0 0 308.9 193a216.3 216.3 0 0 0 36.4-32 1 1 0 0 0-1.1-1.1 145 145 0 0 0-24.2 6.3l-.1-.5-.8-3.9a280.5 280.5 0 0 1-2.3-13.6c28.5-9.3 43-9 48.6.5a14 14 0 0 1 1.3 11.1c-7.2 26.7-96 82.5-148.2 111.7 28.6 15 56 28 79.3 37.3a218 218 0 0 0 47 14.4 1 1 0 0 0 .3-1.6c-3.2-3.8-8.8-9.5-18.4-17.5 1.8-3.6 3.4-7.3 4.7-11.1v-.2l.7-2 .2-.8.4-1.3.3-1c0-.5.2-1 .3-1.4 18 14.3 30.8 27.5 33.4 37a14 14 0 0 1-1.3 11.2ZM81.2 228.2l.2-2.1c20 14.2 44 29.6 70 44.8a699.4 699.4 0 0 1-68.1 30 44 44 0 0 1-4.6-12c-2.6-14.4-.1-36.9 2.5-60.7Zm241.4 30a87 87 0 0 1-9.3 41.2l-.2.4a721.2 721.2 0 0 1-65.3-29 981.3 981.3 0 0 0 72-46.2c2 11.1 2.9 22.4 2.8 33.7Z"/>
  <path fill="#000" d="M157.3 78c1.5-2 6.2-11.3 4-12.5-2.2-1.3-16.6 5.3-18 7.2-1.6 1.9-1.8 8.7.5 10 2.2 1.3 12-2.9 13.5-4.8ZM152.6 101.7c1.5-2 2.8-9.1.5-10.4-2.2-1.2-10 4.6-11.4 6.5-1.6 1.9-3.5 7.3-1.2 8.6 2.2 1.3 10.6-2.8 12-4.7ZM168.4 91.3c.9-1 3-4 1.8-4.8-3.5-2.3-7.1 1.5-8 2.6-.8 1-2 4.2-.6 4.9 1.2.7 6-1.6 6.8-2.7ZM178.5 70.2c1.1-1 3.8-5.3 2.7-5.1-2.5.5-4.8 1.4-6.9 2.8-1.1.9-3.2 3.4-2.5 4.2 1.5 1.6 5.6-1 6.7-2ZM284.4 139.9c-.6 1.2-2.5 7.9-1 7.5a20 20 0 0 0 7.6-6.5c.6-1.2.7-6.8-.7-7.3-1.4-.4-5.3 5-5.9 6.3ZM133.5 92c.7-.4 1.9-2.9 1.2-3-2-.7-3.5.7-4.1 1.2-.6.5-1.7 2-1.2 2.6 1.2 1.2 3.5-.2 4.1-.7ZM120.5 106.8c-.3.7-.1 2.7.5 2.6 2.3-.2 2.1-1.7 2.4-2.4.3-.7 1.1-2.1.4-2.4-1.7-.6-3 1.5-3.3 2.2ZM287.2 127.5c-.4.7-.2 2 .4 2a3.7 3.7 0 0 0 3.2-2.6c.3-.7.6-2.4-.2-2.7-1.6-.7-3 2.6-3.4 3.3ZM98.9 274.4c-1.4-1.4-8.7-6.2-10.3-5-1.6 1.2-1.7 10.6-.3 11.9 1.4 1.3 9.5 7.6 11.1 6.4 1.7-1.2.8-12-.5-13.3ZM149.5 335.5c-2.1-1.3-10.4-2.3-12-.3-1.7 2 4.4 8.4 6.5 9.7 2.2 1.3 10 .9 11.7-1 1.6-2-4-7.2-6.2-8.4ZM115.6 267.3c-1-1-3.9-3.4-5-2.6-3.6 2.3-.3 6.2.7 7.2s4.3 2.6 5.4 1.7c1.2-.8-.1-5.3-1.1-6.3ZM94 254c-.6-1.2-5-4.5-5-3.5-.1 2.1.3 4.3 1.3 6.3.7 1.1 3 3.4 4 3 2.4-.8.5-4.7-.2-5.9Z"/>
  <path stroke="#fff" stroke-width="12" d="m198.6 98-11.3 46.4-29.5 2.4a1 1 0 0 0-.6 1.8l22.6 20-7 29.9a1 1 0 0 0 1.6 1l25.2-16 25.2 16a1 1 0 0 0 1.1 0 1 1 0 0 0 .4-1l-7-30 22.6-20a1 1 0 0 0-.5-1.7l-29.6-2.4L200.6 98a1 1 0 0 0-1.6-.6 1 1 0 0 0-.4.6Z" mask="url(#a)"/>
  <path stroke="#fff" stroke-width="12" d="m336 270.7.6-12.2c.1-14.5-1.4-28.9-4.3-43 37.3-28.3 45.2-42.2 47.8-52a28.2 28.2 0 0 0-2.8-22c-7.2-12-21.2-16.4-41.5-12.6-7 1.3-13.8 3-20.6 5.2l-.3-10.7c1.1-49.4-49.6-88-90.5-98.8-8.8-2.4-17.8-3.6-27-3.6-63.7 0-104.7 62.3-113 100.4l-2.6 12c-6-1.8-12.2-3.3-18.4-4.5-20.3-3.8-34.3.5-41.6 12.7a28.2 28.2 0 0 0-2.7 22c2.6 9.9 10.6 24 49.3 53-2 19.1-4.4 37.9-4.8 53.8-34.5 26.6-42 39.9-44.5 49.4a28.2 28.2 0 0 0 2.7 22c5.6 9.3 15.1 14 28.4 14 4.4 0 8.8-.5 13.2-1.3 9.8-1.8 22.2-5.5 37-11 4.1 3.6 8.6 6.8 13.3 9.7a184.7 184.7 0 0 0 93.5 25.8c42.1 0 77-15.2 89.9-34.7l.7-1.1a237 237 0 0 0 38 11.3c4.3.8 8.7 1.2 13.1 1.3 13.3 0 22.9-4.7 28.4-14a28.2 28.2 0 0 0 2.8-22c-2.5-9.5-10-22.7-44.2-49.1ZM98 124.4c3.3-15 13.5-38 32.3-57.9C143.9 52.2 166.6 35 197.5 35c7.9 0 15.7 1 23.4 3.1 19.3 5.1 39.8 16.9 54.8 31.4 11.8 11.6 25.8 30.2 25.3 53.6-.4 16.5 2.9 36.6 6.8 53.2a908.5 908.5 0 0 1-106 68l-2.2 1.2-2.3-1.3a884.2 884.2 0 0 1-109-70.4c3-17.2 6.5-34 9.8-49.4ZM258 356a138 138 0 0 1-50.8 9 170.5 170.5 0 0 1-91.7-27.3c24.8-10.1 53.9-23.9 84-39.9 30.6 16.2 59.8 30 84.9 40.2a61.6 61.6 0 0 1-26.5 18Zm107.3-21.4c-2.9 4.8-8 7.2-16.2 7.2-11 0-27.2-4.4-50.6-13.3a893.6 893.6 0 0 1-99-46.5 893.7 893.7 0 0 1-98.9 46.5c-23.3 9-39.6 13.3-50.6 13.3-8.1 0-13.3-2.4-16.2-7.2a14 14 0 0 1-1.2-11.2c2.4-9.2 14.7-21.9 31.8-35.8a72.8 72.8 0 0 0 .9 5.5l.1.5.3 1.2.2.6.4 1.2.1.5.5 1.3.2.5.5 1.4.2.4.6 1.5.2.4.7 1.5.1.4.9 1.6a136.9 136.9 0 0 0-16.4 16.2 1 1 0 0 0 .6 1h.6a218 218 0 0 0 46.3-14.4 886 886 0 0 0 79.3-37.3c-52.1-29.2-141-85-148.1-111.7a14 14 0 0 1 1.2-11.1c5.4-9.1 19-9.7 45.2-1.6l-3.4 17.9a132.8 132.8 0 0 0-21.1-5 1 1 0 0 0-.3 1.5C59 167.3 69 177.3 90.4 193a971.1 971.1 0 0 0 109.2 68.4l9-5A971 971 0 0 0 308.9 193a216.3 216.3 0 0 0 36.4-32 1 1 0 0 0-1.1-1.1 145 145 0 0 0-24.2 6.3l-.1-.5-.8-3.9a280.5 280.5 0 0 1-2.3-13.6c28.5-9.3 43-9 48.6.5a14 14 0 0 1 1.3 11.1c-7.2 26.7-96 82.5-148.2 111.7 28.6 15 56 28 79.3 37.3a218 218 0 0 0 47 14.4 1 1 0 0 0 .3-1.6c-3.2-3.8-8.8-9.5-18.4-17.5 1.8-3.6 3.4-7.3 4.7-11.1v-.2l.7-2 .2-.8.4-1.3.3-1c0-.5.2-1 .3-1.4 18 14.3 30.8 27.5 33.4 37a14 14 0 0 1-1.3 11.2ZM81.2 228.2l.2-2.1c20 14.2 44 29.6 70 44.8a699.4 699.4 0 0 1-68.1 30 44 44 0 0 1-4.6-12c-2.6-14.4-.1-36.9 2.5-60.7Zm241.4 30a87 87 0 0 1-9.3 41.2l-.2.4a721.2 721.2 0 0 1-65.3-29 981.3 981.3 0 0 0 72-46.2c2 11.1 2.9 22.4 2.8 33.7Z" mask="url(#a)"/>
  <path stroke="#fff" stroke-width="12" d="M157.3 78c1.5-2 6.2-11.3 4-12.5-2.2-1.3-16.6 5.3-18 7.2-1.6 1.9-1.8 8.7.5 10 2.2 1.3 12-2.9 13.5-4.8ZM152.6 101.7c1.5-2 2.8-9.1.5-10.4-2.2-1.2-10 4.6-11.4 6.5-1.6 1.9-3.5 7.3-1.2 8.6 2.2 1.3 10.6-2.8 12-4.7ZM168.4 91.3c.9-1 3-4 1.8-4.8-3.5-2.3-7.1 1.5-8 2.6-.8 1-2 4.2-.6 4.9 1.2.7 6-1.6 6.8-2.7ZM178.5 70.2c1.1-1 3.8-5.3 2.7-5.1-2.5.5-4.8 1.4-6.9 2.8-1.1.9-3.2 3.4-2.5 4.2 1.5 1.6 5.6-1 6.7-2ZM284.4 139.9c-.6 1.2-2.5 7.9-1 7.5a20 20 0 0 0 7.6-6.5c.6-1.2.7-6.8-.7-7.3-1.4-.4-5.3 5-5.9 6.3ZM133.5 92c.7-.4 1.9-2.9 1.2-3-2-.7-3.5.7-4.1 1.2-.6.5-1.7 2-1.2 2.6 1.2 1.2 3.5-.2 4.1-.7ZM120.5 106.8c-.3.7-.1 2.7.5 2.6 2.3-.2 2.1-1.7 2.4-2.4.3-.7 1.1-2.1.4-2.4-1.7-.6-3 1.5-3.3 2.2ZM287.2 127.5c-.4.7-.2 2 .4 2a3.7 3.7 0 0 0 3.2-2.6c.3-.7.6-2.4-.2-2.7-1.6-.7-3 2.6-3.4 3.3ZM98.9 274.4c-1.4-1.4-8.7-6.2-10.3-5-1.6 1.2-1.7 10.6-.3 11.9 1.4 1.3 9.5 7.6 11.1 6.4 1.7-1.2.8-12-.5-13.3ZM149.5 335.5c-2.1-1.3-10.4-2.3-12-.3-1.7 2 4.4 8.4 6.5 9.7 2.2 1.3 10 .9 11.7-1 1.6-2-4-7.2-6.2-8.4ZM115.6 267.3c-1-1-3.9-3.4-5-2.6-3.6 2.3-.3 6.2.7 7.2s4.3 2.6 5.4 1.7c1.2-.8-.1-5.3-1.1-6.3ZM94 254c-.6-1.2-5-4.5-5-3.5-.1 2.1.3 4.3 1.3 6.3.7 1.1 3 3.4 4 3 2.4-.8.5-4.7-.2-5.9Z" mask="url(#a)"/>
</svg>
